<svg width="30" height="28" viewBox="0 0 30 28" fill="none" xmlns="http://www.w3.org/2000/svg">
<path d="M22.0451 8.16667H22.0596M11.25 25.6667H18.75C25 25.6667 27.5 23.3333 27.5 17.5V10.5C27.5 4.66667 25 2.33333 18.75 2.33333H11.25C5 2.33333 2.5 4.66667 2.5 10.5V17.5C2.5 23.3333 5 25.6667 11.25 25.6667ZM19.375 14C19.375 16.2552 17.4162 18.0833 15 18.0833C12.5838 18.0833 10.625 16.2552 10.625 14C10.625 11.7448 12.5838 9.91667 15 9.91667C17.4162 9.91667 19.375 11.7448 19.375 14Z" stroke="#292D32" stroke-width="1.5" stroke-linecap="round" stroke-linejoin="round"/>
</svg>
