<svg width="150" height="60" viewBox="0 0 204 95" fill="none" xmlns="http://www.w3.org/2000/svg">
<rect width="204" height="95" fill="#230A0D"/>
<path d="M0 2C0 0.895433 0.895431 0 2 0H202C203.105 0 204 0.895431 204 2V93C204 94.1046 203.105 95 202 95H1.99999C0.895424 95 0 94.1046 0 93V2Z" fill="#230A0D"/>
<path d="M2 1H202V-1H2V1ZM203 2V93H205V2H203ZM202 94H1.99999V96H202V94ZM1 93V2H-1V93H1ZM1.99999 94C1.44771 94 1 93.5523 1 93H-1C-1 94.6569 0.343135 96 1.99999 96V94ZM203 93C203 93.5523 202.552 94 202 94V96C203.657 96 205 94.6569 205 93H203ZM202 1C202.552 1 203 1.44771 203 2H205C205 0.34315 203.657 -1 202 -1V1ZM2 -1C0.343144 -1 -1 0.34315 -1 2H1C1 1.44772 1.44772 1 2 1V-1Z" fill="white" fill-opacity="0.1"/>
<path d="M17 69L25 33L30 62L54 15L49 69" stroke="#FFF3F3"/>
<path d="M51 60V88L23 72L192 36" stroke="white"/>
<path d="M73.1616 50.8978C71.7282 51.1452 70.4488 50.9701 69.3231 50.3725C68.2037 49.7662 67.3177 48.8197 66.6652 47.5332C66.0126 46.2466 65.6812 44.7048 65.6708 42.9076C65.6607 41.1566 65.9597 39.5482 66.5678 38.0825C67.1821 36.6081 68.0325 35.3888 69.1193 34.4248C70.2047 33.4533 71.4454 32.8471 72.8415 32.6062C74.2823 32.3575 75.5631 32.5401 76.6838 33.1539C77.8107 33.7589 78.701 34.7084 79.3549 36.0025C80.0074 37.289 80.3457 38.8258 80.3697 40.6129C80.3785 42.3565 80.072 43.9662 79.4503 45.4419C78.8348 46.9089 77.9836 48.1244 76.8969 49.0884C75.8102 50.0524 74.5651 50.6556 73.1616 50.8978ZM72.9656 49.6285C74.1899 49.4172 75.2579 48.8793 76.1696 48.0146C77.0813 47.15 77.7831 46.0718 78.2751 44.7799C78.7746 43.4867 79.0151 42.096 78.9965 40.6078C78.9857 39.1643 78.7331 37.901 78.2387 36.8178C77.7429 35.7271 77.0532 34.916 76.1696 34.3842C75.2847 33.8451 74.2525 33.6773 73.073 33.8808C71.8561 34.0909 70.7888 34.6326 69.8709 35.5059C68.9605 36.378 68.2556 37.4606 67.7561 38.7538C67.2566 40.047 67.0155 41.434 67.0328 42.9147C67.0348 44.352 67.2837 45.616 67.7795 46.7066C68.2814 47.7885 68.9748 48.5991 69.8597 49.1383C70.7508 49.6687 71.7861 49.8321 72.9656 49.6285ZM86.407 36.7573L86.4843 48.2294L85.1181 48.4652L85.0162 30.7702L86.3488 30.5402L86.3705 33.3387L86.5049 33.3155C86.8891 32.3343 87.5275 31.49 88.4202 30.7824C89.3128 30.0748 90.3713 29.6153 91.5957 29.404C92.7453 29.2056 93.7621 29.2838 94.6459 29.6387C95.5297 29.9935 96.222 30.5967 96.7226 31.4482C97.2219 32.2923 97.4752 33.3594 97.4827 34.6497L97.548 46.32L96.1818 46.5558L96.115 34.9434C96.1013 33.439 95.667 32.3031 94.8119 31.5358C93.963 30.7598 92.8256 30.4948 91.3997 30.7409C90.4367 30.9071 89.5769 31.2708 88.8204 31.8319C88.0714 32.3917 87.482 33.0969 87.0522 33.9475C86.6211 34.7907 86.4061 35.7273 86.407 36.7573ZM107.802 44.9308C106.809 45.1022 105.898 45.0557 105.068 44.7915C104.246 44.5259 103.582 44.0446 103.078 43.3476C102.573 42.6506 102.312 41.7422 102.296 40.6227C102.299 39.8841 102.425 39.2127 102.675 38.6084C102.924 38.0042 103.313 37.4527 103.842 36.954C104.371 36.4552 105.047 36.0042 105.869 35.6009C106.697 35.1889 107.681 34.8114 108.822 34.4686C109.699 34.2095 110.48 33.9671 111.164 33.7415C111.848 33.5158 112.387 33.2574 112.783 32.9662C113.179 32.675 113.376 32.3064 113.376 31.8605L113.364 31.1245C113.358 29.8417 112.974 28.8856 112.212 28.256C111.449 27.619 110.373 27.4203 108.984 27.6599C107.76 27.8712 106.71 28.3369 105.835 29.0568C104.959 29.7693 104.354 30.5848 104.02 31.5034L102.75 31.2267C103.071 30.3257 103.539 29.5414 104.154 28.8741C104.777 28.2054 105.491 27.6632 106.295 27.2476C107.107 26.8307 107.958 26.5456 108.846 26.3922C109.615 26.2595 110.35 26.2441 111.052 26.3459C111.754 26.4477 112.378 26.6783 112.924 27.0376C113.478 27.3956 113.915 27.9006 114.235 28.5526C114.561 29.1959 114.724 30.0057 114.724 30.9822L114.804 43.3418L113.438 43.5775L113.429 40.3848L113.328 40.4022C113.036 41.1138 112.629 41.7875 112.109 42.4232C111.594 43.0501 110.976 43.5874 110.254 44.0349C109.53 44.475 108.713 44.7736 107.802 44.9308ZM107.841 43.621C108.916 43.4354 109.871 43.0015 110.707 42.3191C111.549 41.628 112.208 40.7686 112.684 39.7409C113.167 38.7118 113.402 37.5989 113.387 36.4021L113.387 33.7959C113.212 33.98 112.962 34.1614 112.639 34.3401C112.315 34.5114 111.948 34.6785 111.538 34.8416C111.134 34.9958 110.711 35.1459 110.267 35.2916C109.829 35.4287 109.402 35.56 108.986 35.6857C107.735 36.0554 106.718 36.4691 105.936 36.927C105.153 37.3773 104.577 37.8919 104.208 38.4707C103.846 39.0482 103.663 39.7025 103.659 40.4336C103.674 41.6379 104.073 42.5224 104.855 43.087C105.644 43.6504 106.639 43.8284 107.841 43.621ZM121.747 18.5266L121.898 42.1174L120.532 42.3532L120.381 18.7624L121.747 18.5266ZM127.62 41.1298L127.519 23.4348L128.874 23.201L128.975 40.896L127.62 41.1298ZM128.312 20.1497C127.991 20.2051 127.704 20.1432 127.45 19.9641C127.202 19.7762 127.066 19.5192 127.04 19.193C127.009 18.9217 127.088 18.6659 127.277 18.4257C127.466 18.1855 127.706 18.0402 127.997 17.99C128.318 17.9346 128.603 18.0008 128.85 18.1887C129.097 18.3691 129.236 18.6181 129.267 18.9355C129.293 19.2155 129.211 19.4757 129.022 19.7159C128.84 19.9548 128.603 20.0994 128.312 20.1497ZM145.538 24.1419L144.282 24.6816C144.06 24.0663 143.765 23.5599 143.397 23.1622C143.027 22.7571 142.564 22.4795 142.008 22.3295C141.457 22.1708 140.798 22.1578 140.029 22.2905C138.737 22.5134 137.692 23.0244 136.892 23.8236C136.092 24.6228 135.697 25.5443 135.708 26.5879C135.713 27.4174 135.984 28.0547 136.523 28.5C137.061 28.9453 137.887 29.2139 139.003 29.3059L141.67 29.5259C143.027 29.6377 144.051 30.0297 144.744 30.702C145.444 31.373 145.797 32.2808 145.802 33.4253C145.817 34.3992 145.569 35.303 145.059 36.1366C144.556 36.9615 143.854 37.6593 142.953 38.2299C142.052 38.8006 141.004 39.189 139.81 39.3951C138.197 39.6734 136.871 39.5142 135.83 38.9173C134.787 38.3131 134.111 37.3112 133.8 35.9119L135.109 35.4093C135.353 36.5126 135.865 37.2968 136.645 37.7618C137.424 38.2194 138.44 38.34 139.694 38.1235C141.12 37.8774 142.267 37.3297 143.135 36.4803C144.003 35.6308 144.433 34.665 144.423 33.5827C144.414 32.777 144.155 32.1451 143.646 31.6872C143.136 31.2294 142.367 30.9623 141.339 30.886L138.614 30.6644C137.195 30.548 136.124 30.1563 135.402 29.4891C134.685 28.8132 134.324 27.8993 134.317 26.7472C134.317 25.8094 134.552 24.9425 135.022 24.1464C135.499 23.349 136.16 22.6777 137.003 22.1323C137.847 21.5869 138.818 21.2195 139.915 21.0301C141.386 20.7763 142.584 20.9269 143.51 21.482C144.435 22.0297 145.111 22.9163 145.538 24.1419ZM155.133 36.762C154.141 36.9333 153.229 36.8869 152.4 36.6226C151.577 36.3571 150.914 35.8758 150.409 35.1788C149.904 34.4817 149.644 33.5734 149.627 32.4538C149.631 31.7152 149.757 31.0438 150.006 30.4396C150.256 29.8353 150.645 29.2838 151.174 28.7851C151.703 28.2864 152.378 27.8354 153.2 27.4321C154.029 27.02 155.013 26.6426 156.153 26.2998C157.031 26.0406 157.812 25.7983 158.495 25.5726C159.179 25.347 159.719 25.0886 160.114 24.7973C160.51 24.5061 160.708 24.1376 160.708 23.6917L160.696 22.9557C160.69 21.6729 160.306 20.7167 159.544 20.0872C158.78 19.4501 157.704 19.2514 156.316 19.4911C155.091 19.7024 154.042 20.168 153.166 20.888C152.29 21.6004 151.685 22.416 151.352 23.3345L150.081 23.0579C150.403 22.1568 150.871 21.3726 151.486 20.7052C152.109 20.0365 152.822 19.4944 153.627 19.0788C154.439 18.6618 155.289 18.3767 156.178 18.2234C156.947 18.0907 157.682 18.0752 158.384 18.1771C159.085 18.2789 159.71 18.5094 160.256 18.8687C160.81 19.2267 161.247 19.7317 161.567 20.3838C161.893 21.027 162.056 21.8369 162.055 22.8134L162.136 35.1729L160.77 35.4087L160.761 32.216L160.66 32.2334C160.367 32.945 159.961 33.6186 159.44 34.2543C158.926 34.8813 158.307 35.4185 157.585 35.866C156.861 36.3061 156.044 36.6048 155.133 36.762ZM155.173 35.4521C156.248 35.2666 157.203 34.8326 158.038 34.1503C158.88 33.4592 159.539 32.5998 160.015 31.572C160.499 30.543 160.733 29.43 160.719 28.2332L160.719 25.6271C160.543 25.8112 160.294 25.9926 159.971 26.1713C159.647 26.3425 159.28 26.5097 158.87 26.6727C158.466 26.827 158.042 26.977 157.598 27.1228C157.161 27.2598 156.734 27.3912 156.317 27.5169C155.066 27.8865 154.05 28.3003 153.268 28.7581C152.484 29.2085 151.908 29.7231 151.539 30.3018C151.178 30.8793 150.995 31.5336 150.99 32.2648C151.006 33.469 151.404 34.3535 152.186 34.9182C152.975 35.4816 153.971 35.6596 155.173 35.4521Z" fill="white"/>
</svg>
